# xmcd
#
# Track frame offsets:
#	150
#	17479
#	38374
#	56719
#	74803
#	89093
#	114304
#	128836
#	147895
#	161319
#	184463
#	211565
#
# Disc length: 3114 seconds
#
# Revision: 1
# Processed by: cddbd v1.5.1PL0 Copyright (c) Steve Scherf et al.
# Submitted via: audiograbber 1.81.03
#
DISCID=a30c280c
DTITLE=Ray`Edge - Soul Connection
DYEAR=2005
DGENRE=Blues
TTITLE0=Time Enough For Love
TTITLE1=Real Good Thing
TTITLE2=It Started With the Blues
TTITLE3=Internet Date
TTITLE4=Mess Around On You
TTITLE5=Soul Connection
TTITLE6=Rock and Roll Real Estate
TTITLE7=Blame It On the Moon
TTITLE8=Save Our Soul
TTITLE9=Heaven In Your Eyes
TTITLE10=Look For the Love Inside
TTITLE11=Thank You Girl
EXTD=
EXTT0=
EXTT1=
EXTT2=
EXTT3=
EXTT4=
EXTT5=
EXTT6=
EXTT7=
EXTT8=
EXTT9=
EXTT10=
EXTT11=
PLAYORDER=
